<?xml version="1.0" standalone="no"?>
<!DOCTYPE svg PUBLIC "-//W3C//DTD SVG 20010904//EN"
 "http://www.w3.org/TR/2001/REC-SVG-20010904/DTD/svg10.dtd">
<svg version="1.0" xmlns="http://www.w3.org/2000/svg"
 width="704.000000pt" height="704.000000pt" viewBox="0 0 704.000000 704.000000"
 preserveAspectRatio="xMidYMid meet">
<metadata>
Created by potrace 1.11, written by Peter Selinger 2001-2013
</metadata>
<g transform="translate(0.000000,704.000000) scale(0.100000,-0.100000)"
fill="#000000" stroke="none">
<path d="M3550 6461 c0 -5 -6 -16 -12 -23 -12 -12 -28 -39 -62 -103 -6 -11
-13 -22 -16 -25 -3 -3 -19 -27 -35 -55 -16 -27 -38 -63 -47 -80 -10 -16 -28
-49 -40 -72 -12 -24 -26 -43 -30 -43 -4 0 -8 -4 -8 -9 0 -13 -73 -135 -82
-139 -5 -2 -8 -9 -8 -14 0 -6 -20 -44 -45 -84 -25 -39 -45 -77 -45 -83 0 -6
-4 -11 -9 -11 -5 0 -14 -13 -21 -30 -7 -16 -16 -30 -21 -30 -5 0 -9 -5 -9 -11
0 -6 -21 -46 -46 -88 -26 -42 -55 -89 -64 -106 -9 -16 -39 -66 -65 -110 -26
-44 -53 -89 -59 -100 -10 -17 -288 -482 -323 -540 -7 -11 -15 -27 -19 -35 -4
-8 -22 -39 -41 -68 -18 -29 -33 -54 -33 -57 0 -3 -17 -31 -37 -62 -21 -32 -38
-60 -38 -63 0 -3 -8 -16 -17 -30 -23 -36 -162 -269 -184 -309 -11 -18 -24 -41
-29 -50 -6 -9 -70 -117 -144 -241 -73 -124 -141 -236 -149 -250 -9 -14 -22
-34 -28 -46 -21 -39 -128 -219 -134 -224 -3 -3 -12 -19 -21 -35 -25 -48 -163
-279 -169 -285 -3 -3 -17 -26 -30 -52 -14 -27 -28 -48 -32 -48 -5 0 -8 -5 -8
-10 0 -6 -69 -126 -153 -268 -160 -268 -202 -338 -227 -381 -118 -201 -227
-383 -246 -412 -13 -19 -24 -40 -24 -47 0 -7 -4 -12 -10 -12 -5 0 -10 -4 -10
-9 0 -8 -60 -112 -110 -191 -16 -27 -75 -125 -80 -135 -10 -20 -123 -211 -145
-245 -53 -83 -335 -563 -335 -571 0 -5 724 -8 1737 -7 l1738 3 21 40 c11 22
54 99 94 170 40 72 84 150 98 175 14 25 66 119 117 210 107 192 146 262 171
310 11 19 22 37 25 40 3 3 12 19 20 35 9 17 48 89 88 160 41 72 106 189 146
260 40 72 82 147 93 167 12 21 38 68 58 105 20 37 40 73 44 78 4 6 22 37 40
70 18 33 75 134 125 225 51 91 105 188 120 215 16 28 57 101 92 164 34 62 63
117 63 121 0 5 3 10 8 12 4 1 19 26 33 53 14 28 67 123 118 212 50 89 91 164
91 167 0 3 11 21 25 41 26 39 24 59 -14 113 -24 34 -211 351 -211 358 0 2 -15
28 -34 57 -19 28 -73 120 -121 202 -49 83 -101 170 -117 194 -15 25 -28 50
-28 58 0 7 -4 13 -10 13 -5 0 -10 7 -10 15 0 8 -4 15 -10 15 -5 0 -10 4 -10 9
0 5 -20 42 -44 83 -77 126 -110 183 -111 188 0 3 -10 19 -23 37 -12 17 -22 34
-22 37 0 3 -15 29 -33 58 -19 29 -37 60 -40 68 -4 8 -15 29 -26 45 -92 151
-201 338 -201 346 0 5 -3 9 -7 9 -5 0 -13 10 -19 23 -6 12 -61 108 -123 212
-63 105 -121 204 -131 220 -9 17 -74 126 -144 244 -70 118 -134 227 -142 242
-14 28 -34 39 -34 20z"/>
<path d="M5707 2823 c-6 -18 -62 -118 -77 -138 -4 -5 -19 -30 -32 -55 -59
-106 -268 -466 -278 -477 -5 -7 -10 -15 -10 -18 0 -3 -18 -35 -40 -71 -22 -36
-40 -67 -40 -69 0 -2 -36 -63 -79 -138 -43 -74 -90 -154 -104 -178 -26 -48
-76 -134 -140 -244 -22 -38 -60 -104 -84 -145 -24 -41 -48 -82 -53 -90 -5 -8
-30 -51 -55 -95 -70 -124 -93 -164 -141 -243 -24 -40 -44 -74 -44 -76 0 -2
-17 -33 -38 -67 -21 -35 -50 -85 -66 -111 l-27 -48 1301 0 1302 0 -20 33 c-11
17 -31 52 -44 77 -14 25 -35 63 -48 85 -12 22 -35 63 -50 90 -15 28 -57 102
-92 165 -36 63 -80 142 -98 175 -18 33 -44 77 -57 97 -12 21 -23 40 -23 42 0
3 -17 33 -37 68 -21 35 -38 66 -38 70 0 4 -6 13 -12 19 -7 7 -13 16 -13 20 0
4 -22 45 -50 92 -27 47 -50 90 -50 96 0 6 -4 11 -9 11 -5 0 -11 8 -14 18 -6
16 -40 79 -99 182 -14 25 -45 79 -69 120 -23 41 -41 75 -38 75 2 0 -6 14 -17
30 -22 32 -61 100 -101 175 -13 25 -34 63 -47 85 -40 70 -67 119 -89 160 -12
22 -26 43 -32 47 -5 4 -6 8 -1 8 5 0 2 8 -6 18 -8 9 -29 42 -45 72 -84 154
-88 159 -96 133z"/>
</g>
</svg>
